<?xml version="1.0" encoding="utf-8"?>
<!-- Generator: Adobe Illustrator 24.3.0, SVG Export Plug-In . SVG Version: 6.00 Build 0)  -->
<svg version="1.1" id="Layer_1" xmlns="http://www.w3.org/2000/svg" xmlns:xlink="http://www.w3.org/1999/xlink" x="0px" y="0px"
	 viewBox="0 0 716.73 53.44" style="enable-background:new 0 0 716.73 53.44;" xml:space="preserve">
<style type="text/css">
	.st0{fill:#C41A1A;}
	.st1{fill:#1374B8;}
</style>
<g>
	<path class="st0" d="M414.83,31.56c2.3,3.63,4.48,6.95,6.53,10.36c1.46,2.42,1.62,4.85-1.2,6.42c-2.76,1.54-5.32,1.2-7.11-1.67
		c-1.98-3.17-3.97-6.33-5.78-9.6c-1.77-3.2-4.24-4.34-8.74-2.95c0,3.2-0.1,6.74,0.03,10.28c0.13,3.44-1.83,4.82-4.8,4.82
		c-3.1,0-4.78-1.82-4.78-5c0-11.21-0.05-22.42,0.03-33.64c0.03-4.01,1.41-5.27,5.54-5.33c4.49-0.07,8.99-0.07,13.47,0.1
		c6.68,0.26,11.77,3.77,13.39,8.98c1.98,6.38-0.04,12.09-5.75,16.36C415.38,30.9,415.16,31.2,414.83,31.56z M398.64,19.41
		c0.02,6.31,0.02,6.31,5.03,6.28c5.72-0.03,8.35-1.95,8.4-6.18c0.06-4.53-2.3-6.14-9-6.14C398.62,13.38,398.62,13.38,398.64,19.41z"
		/>
	<path class="st0" d="M527.47,31.76c2.13,3.26,4.3,6.43,6.31,9.71c1.49,2.43,2.08,4.94-0.82,6.88c-2.66,1.78-5.44,1.16-7.42-1.81
		c-2.28-3.43-4.14-7.15-6.65-10.39c-1.02-1.32-3.17-1.98-4.94-2.46c-1.97-0.53-2.98,0.56-2.93,2.68c0.06,2.74-0.14,5.5-0.03,8.24
		c0.13,3.29-1.79,4.55-4.6,4.62c-2.87,0.07-4.81-1.41-4.91-4.47c-0.12-3.37-0.05-6.74-0.06-10.11c-0.01-7.86-0.06-15.73-0.01-23.59
		c0.03-4.31,1.3-5.63,5.55-5.7c4.37-0.07,8.75-0.06,13.12,0.06c6.79,0.19,12.21,3.72,13.77,9.05c1.76,6.02,0.12,13.22-5.68,16.41
		C527.89,31.04,527.72,31.43,527.47,31.76z M510.95,19.55c0,6.14,0,6.14,4.83,6.15c6.36,0.01,8.77-1.62,8.86-5.98
		c0.1-4.64-2.34-6.28-9.29-6.27C510.95,13.45,510.95,13.45,510.95,19.55z"/>
	<path class="st0" d="M111.28,31.69c2.23,3.37,4.38,6.58,6.49,9.82c1.64,2.52,1.89,4.9-0.96,6.78c-2.7,1.78-5.49,1.17-7.37-1.76
		c-1.95-3.04-3.85-6.13-5.54-9.32c-1.81-3.42-4.37-4.57-8.65-3.15c0,3.22,0.05,6.67-0.01,10.12c-0.07,3.56-1.7,5.28-4.92,5.1
		c-3.08-0.17-4.72-1.69-4.71-5.01c0.05-11.1-0.08-22.21-0.02-33.31c0.02-4.69,1.08-5.64,5.86-5.69c4.25-0.05,8.5-0.05,12.74,0.1
		c6.96,0.25,11.74,3.61,13.52,9.29c2.02,6.43,0.07,11.85-5.83,16.21C111.69,31,111.59,31.25,111.28,31.69z M100.65,13.01
		c-5.38,0.34-5.38,0.34-5.36,5.93c0.02,6.93,1.81,8.45,8.56,6.4c1.78-0.54,3.93-2.69,4.26-4.41c0.37-1.93-0.63-4.67-1.99-6.22
		C105.04,13.49,102.52,13.53,100.65,13.01z"/>
	<path class="st0" d="M700.8,25.74c4.34,5.05,8.49,9.87,12.62,14.69c1.97,2.3,3.7,4.69,0.77,7.44c-2.55,2.39-5.48,1.88-8.34-1.5
		c-3.86-4.57-7.63-9.23-11.45-13.83c-0.83-1-1.74-1.94-2.61-2.91c-0.34,0.1-0.68,0.21-1.02,0.31c0,4.54,0.04,9.07-0.01,13.61
		c-0.04,4.06-1.45,5.73-4.69,5.73c-3.23,0.01-4.82-1.76-4.84-5.63c-0.06-11.09-0.08-22.18-0.06-33.28c0.01-4.08,1.44-5.68,4.74-5.61
		c3.31,0.07,4.8,1.72,4.87,5.69c0.07,4.2,0.02,8.39,0.91,12.91c3.88-4.61,7.75-9.22,11.63-13.82c0.96-1.14,1.9-2.33,3.01-3.31
		c2.07-1.83,4.36-1.93,6.39-0.03c2.05,1.92,2.1,4.25,0.25,6.32C709.1,16.87,705.08,21.11,700.8,25.74z"/>
	<path class="st0" d="M612.39,4.66c3.58,0.03,6.15,1.38,7.45,4.99c3.89,10.77,7.95,21.47,11.84,32.23c1.5,4.14,0.8,5.81-2.4,6.92
		c-3.24,1.12-5.44-0.07-6.92-3.75c-2.45-6.07-2.45-6.07-9.07-6.07c-0.62,0-1.25,0-1.87,0c-6.56-0.01-6.56-0.01-8.99,6.19
		c-1.38,3.51-3.93,4.9-6.92,3.73c-3.51-1.38-3.18-4.09-2.18-6.84c3.99-10.99,8.08-21.95,12.07-32.94
		C606.61,5.78,609.1,4.66,612.39,4.66z M617.91,31.01c-1.87-5.79-3.55-10.96-5.22-16.13c-0.28,0.05-0.55,0.1-0.83,0.15
		c-1.58,5.17-3.15,10.33-4.88,15.98C610.75,31.01,614.01,31.01,617.91,31.01z"/>
	<path class="st0" d="M59.93,4.68c3.2,0.07,5.73,1.36,6.98,4.81c4.03,11.13,8.13,22.24,12.23,33.34c0.98,2.66,0.42,4.66-2.28,5.81
		c-2.63,1.12-4.95,0.68-6.54-1.8c-0.72-1.14-1.4-2.46-1.56-3.77c-0.44-3.56-2.45-4.53-5.69-4.06c-1.1,0.16-2.26,0.16-3.37,0.03
		c-5.3-0.63-9.36,0.11-10.34,6.66c-0.46,3.11-3.57,4.13-6.5,3.08c-3.3-1.18-3.42-3.59-2.4-6.38c4-11.01,8.08-21.99,12.01-33.02
		C53.72,5.83,56.3,4.74,59.93,4.68z M59.95,14.95c-0.3,0.01-0.59,0.02-0.89,0.04c-1.63,5.32-3.27,10.65-4.97,16.2
		c3.88,0,7.14,0,10.88,0C63.22,25.5,61.59,20.22,59.95,14.95z"/>
	<path class="st0" d="M362.88,3.85c4.04,0.98,6.57,2.25,7.81,5.73c3.94,11.03,7.95,22.04,12.03,33.02c1.12,3.02,0.5,5.11-2.55,6.3
		c-2.81,1.1-6.1,0.11-6.59-2.92c-1.14-7.05-5.53-7.77-11.24-6.98c-1.35,0.19-2.76,0.17-4.12,0.01c-2.33-0.27-3.41,0.83-3.97,2.94
		c-0.41,1.56-0.96,3.11-1.66,4.56c-1.37,2.83-3.78,2.97-6.38,2.09c-2.54-0.87-3.09-2.95-2.3-5.16c4.18-11.74,8.29-23.51,12.92-35.07
		C357.63,6.38,360.8,5.33,362.88,3.85z M368.7,30.97c-1.87-5.78-3.52-10.87-5.18-15.96c-0.28,0.02-0.56,0.03-0.83,0.05
		c-1.61,5.19-3.22,10.37-4.95,15.91C361.59,30.97,364.85,30.97,368.7,30.97z"/>
	<path class="st0" d="M558.94,27.05c0-5.36-0.05-10.73,0.01-16.09c0.05-4.55,1.07-5.6,5.47-5.67c4.24-0.06,8.5-0.13,12.74,0.07
		c9.52,0.44,15.2,6.31,15.2,15.48c-0.01,8.4-5.97,14.37-14.98,15.05c-2.81,0.21-6.52-0.48-8.14,1.03c-1.43,1.33-0.58,5.16-0.62,7.89
		c-0.05,3.28-2.13,4.41-4.89,4.36c-2.76-0.06-4.8-1.26-4.78-4.53c0.04-5.86,0.01-11.72,0.01-17.59
		C558.95,27.05,558.95,27.05,558.94,27.05z M568.66,28.44c3.68-0.38,6.96-0.26,9.94-1.15c2.9-0.86,4.28-3.78,3.67-6.61
		c-0.5-2.31-1.8-5.48-3.59-6.23c-2.75-1.15-6.24-0.57-9.42-0.61c-0.19,0-0.56,1.05-0.57,1.62
		C568.63,19.54,568.66,23.61,568.66,28.44z"/>
	<path class="st0" d="M480.42,48.8c-3.5,0-7,0.06-10.49-0.02c-3.01-0.07-4.58-1.75-4.59-4.74c-0.04-11.23-0.06-22.46-0.05-33.68
		c0-3.34,1.68-5.04,5.1-5.03c6.62,0.03,13.24,0.03,19.86-0.03c2.68-0.02,3.91,1.31,4.02,3.83c0.12,2.58-1.27,4.08-3.76,4.18
		c-4.12,0.17-8.25,0.2-12.36,0.04c-2.61-0.1-3.47,0.77-3.43,3.41c0.08,5.83-0.06,5.83,5.87,5.85c2.62,0.01,5.25,0.01,7.87,0.04
		c2.57,0.03,3.47,1.7,3.55,3.92c0.08,2.31-0.99,3.93-3.44,4.03c-3.49,0.14-7,0.18-10.49,0.06c-2.41-0.09-3.31,0.75-3.29,3.21
		c0.09,8.28-0.45,6.58,6.4,6.73c3.12,0.07,6.25,0.04,9.37,0.02c2.93-0.02,4.48,1.49,4.43,4.34c-0.04,2.78-1.76,3.89-4.45,3.84
		C487.16,48.75,483.79,48.8,480.42,48.8z"/>
	<path class="st0" d="M141.22,3.97c3.55,1.01,7.21,1.77,10.63,3.13c2.47,0.98,4.09,3.09,2.7,6.02c-1.39,2.93-3.65,2.63-6.34,1.74
		c-3.02-1-6.23-1.95-9.35-1.93c-1.54,0.01-3.81,2.02-4.32,3.58c-0.33,1.01,1.63,3.44,3.1,4.22c2.61,1.37,5.65,1.91,8.47,2.9
		c7.56,2.66,10.55,6.63,10.16,13.33c-0.37,6.34-4.29,10.52-11.8,12.06c-5.79,1.19-11.45,0.52-16.72-2.32
		c-1.08-0.58-2.56-1.35-2.81-2.3c-0.46-1.74-0.78-4.08,0.06-5.41c0.61-0.98,3.28-1.3,4.81-0.95c2.75,0.62,5.28,2.2,8.02,2.92
		c1.59,0.42,3.65,0.4,5.09-0.28c1.46-0.69,3.26-2.37,3.37-3.74c0.11-1.39-1.34-3.64-2.69-4.26c-3.37-1.55-7.11-2.26-10.61-3.55
		c-4.97-1.83-8.18-5.16-8.31-10.79c-0.17-7.45,4.61-12.63,12.6-13.58c1.23-0.15,2.49-0.02,3.74-0.02
		C141.1,4.49,141.16,4.23,141.22,3.97z"/>
	<path class="st0" d="M291.93,3.9c3.67,1.07,7.43,1.88,10.96,3.28c2.6,1.03,3.81,3.33,2.34,6.12c-1.37,2.59-3.49,2.63-6.08,1.66
		c-2.64-0.99-5.43-1.79-8.22-2.17c-2.64-0.36-5.54,0.6-5.52,3.58c0.01,1.6,2.14,3.66,3.82,4.65c2.21,1.29,4.93,1.68,7.41,2.52
		c7.75,2.65,10.68,6.54,10.3,13.57c-0.34,6.22-4.46,10.58-11.86,12c-6.05,1.16-11.97,0.53-17.31-2.88
		c-3.03-1.94-3.85-4.57-2.25-6.92c1.9-2.79,4.1-1.53,6.59-0.69c3.45,1.15,7.12,2.15,10.71,2.19c1.47,0.02,3.86-2.48,4.17-4.14
		c0.24-1.24-1.89-3.52-3.49-4.39c-2.36-1.29-5.2-1.66-7.79-2.56c-7.44-2.59-10.93-7.44-10.04-13.78c0.92-6.52,6.29-10.93,13.8-11.32
		c0.75-0.04,1.5-0.01,2.25-0.01C291.79,4.39,291.86,4.14,291.93,3.9z"/>
	<path class="st0" d="M658.61,3.68c4.18,1.42,8.53,2.48,12.47,4.37c3.33,1.6,4.03,4.77,2.26,7.16c-2.09,2.83-4.57,2.32-7.23,0.69
		c-6.73-4.1-13.18-3.58-17.25,1.29c-4.36,5.21-4.29,14.65,0.15,19.8c3.81,4.42,10.62,5.28,16.07,2.04c4.62-2.75,7.14-2.77,8.75-0.05
		c1.59,2.68-0.14,5.86-4.46,8.16c-9.32,4.98-22.14,2.65-28.75-5.24c-6.59-7.86-6.79-21.06-0.45-29.23
		c4.06-5.23,10.39-8.05,18.13-8.09C658.4,4.29,658.51,3.98,658.61,3.68z"/>
	<path class="st0" d="M20.74,39.96c1.84-5.91,3.42-10.96,4.98-16c1.51-4.87,2.98-9.76,4.54-14.61c1.26-3.91,3.36-5.17,6.59-4.09
		c3.08,1.03,4.08,3.21,2.76,6.87C35.75,22.77,31.74,33.36,27.85,44c-1.32,3.61-3.77,5.43-7.61,5.4c-3.85-0.03-6.26-1.94-7.51-5.55
		c-3.7-10.7-7.44-21.39-11.21-32.06c-1.07-3.04-0.7-5.41,2.64-6.63C7.32,4,9.81,5.28,10.97,8.92c2.92,9.12,5.71,18.29,8.56,27.44
		C19.81,37.27,20.14,38.17,20.74,39.96z"/>
	<path class="st0" d="M235.29,24.54c3-5.82,5.59-11.05,8.39-16.15c0.73-1.33,2.03-3.08,3.26-3.25c1.73-0.24,4.15,0.3,5.32,1.47
		c0.92,0.92,1.09,3.67,0.39,4.95c-3.15,5.79-6.57,11.46-10.23,16.95c-1.82,2.73-2.78,5.41-2.61,8.67c0.14,2.73-0.04,5.48-0.22,8.21
		c-0.19,2.8-2.14,3.89-4.61,3.85c-2.46-0.04-4.33-1.16-4.58-3.95c-0.02-0.25-0.09-0.51-0.05-0.74c1.81-9.97-3.14-17.74-8.26-25.48
		c-1.51-2.28-2.87-4.67-4.25-7.04c-1.45-2.49-1.43-4.77,1.25-6.46c2.56-1.62,5.51-1.03,7.08,1.73c2.53,4.43,4.78,9.02,7.16,13.54
		C233.84,21.81,234.36,22.78,235.29,24.54z"/>
	<path class="st0" d="M327.79,5.25c4.37,0,8.74,0.04,13.11-0.02c2.77-0.04,4.19,1.19,4.26,3.99c0.07,2.77-1.25,4.19-4.03,4.23
		c-0.12,0-0.25,0.01-0.37,0.01c-8.63,0.51-8.61,0.51-8.59,9.13c0.02,6.98,0.04,13.97-0.03,20.95c-0.03,3.98-1.83,5.91-5.22,5.74
		c-3.63-0.18-4.36-2.53-4.37-5.66c-0.02-8.85-0.28-17.71-0.23-26.56c0.02-2.8-0.87-3.86-3.67-3.56c-1.73,0.19-3.49,0.04-5.24,0
		c-2.59-0.06-3.97-1.52-3.95-4c0.02-2.54,1.19-4.28,4.08-4.27C318.3,5.27,323.05,5.25,327.79,5.25z"/>
	<path class="st0" d="M436.9,30.42c0-4.49-0.11-8.99,0.04-13.48c0.09-2.53-0.65-3.72-3.37-3.44c-1.85,0.19-3.74,0.03-5.62,0.02
		c-2.72-0.01-3.83-1.63-3.75-4.09c0.08-2.34,1.05-4.16,3.79-4.16c9.5,0,18.99,0.01,28.49,0.04c2.58,0.01,3.42,1.68,3.46,3.95
		c0.04,2.29-0.88,3.95-3.35,4.12c-2.24,0.16-4.51,0.24-6.74,0.06c-2.9-0.24-3.27,1.33-3.25,3.65c0.07,8.86,0.04,17.72,0.08,26.58
		c0.01,2.42-0.42,4.42-3.14,5.26c-3.55,1.1-6.39-0.61-6.5-4.31c-0.15-4.74-0.04-9.48-0.04-14.23
		C436.97,30.42,436.93,30.42,436.9,30.42z"/>
	<path class="st0" d="M190.94,13.53c-3.12,0-5.73-0.04-8.34,0.01c-2.89,0.06-4.12-1.56-4.15-4.17c-0.04-2.67,1.31-4.14,4.15-4.13
		c9,0.01,18-0.02,26.99-0.08c2.95-0.02,4.38,1.36,4.35,4.32c-0.02,2.85-1.52,4.05-4.24,4.01c-0.37-0.01-0.75,0.02-1.12,0.02
		c-7.72,0.16-7.7,0.16-7.67,8.06c0.02,7.36,0.03,14.73-0.02,22.09c-0.03,3.85-1.66,5.69-4.94,5.61c-3.47-0.08-4.7-2.07-4.67-5.39
		c0.06-8.49-0.04-16.97-0.09-25.46C191.16,16.96,191.04,15.49,190.94,13.53z"/>
	<path class="st0" d="M172.99,27.2c0,5.6-0.04,11.2,0.01,16.8c0.03,3.34-1.48,5.27-4.86,5.23c-3.33-0.04-4.82-1.9-4.78-5.29
		c0.14-11.45,0.18-22.9,0.22-34.34c0.01-3.03,1.41-4.73,4.45-4.78c3.18-0.05,4.84,1.64,4.85,4.84c0.01,5.85,0,11.7,0,17.55
		C172.92,27.2,172.95,27.2,172.99,27.2z"/>
</g>
</svg>
